# xmcd CD database file
#
# Track frame offsets:
#	150
#	25335
#	46590
#	68607
#	92935
#	105452
#	127412
#	152807
#	171285
#	184700
#	209955
#
# Disc length: 2883 seconds
#
# Revision: 0
# Processed by: cddbd v1.5.1PL0 Copyright (c) Steve Scherf et al.
# Submitted via: CDex 1.51
#
DISCID=9c0b410b
DTITLE=鈴木 茂 and P.M.V - 鈴木 茂 and P.M.V
DYEAR=1997
DGENRE=Rock
TTITLE0=I LOVE EVERY LITTLE THING ABOUT YOU
TTITLE1=WHERE'S THE OCEAN
TTITLE2=IF I WERE YOU
TTITLE3=WHO KNOWS WHAT TOMORROW MAY BRING
TTITLE4=IRISH HEART
TTITLE5=21
TTITLE6=CROSSROADS
TTITLE7=THE SCREW LADDER
TTITLE8=BIOLOGICAL CLOCK
TTITLE9=NIGHT CREEP
TTITLE10=NORTH PATIENCE
EXTD=YEAR: 1997
EXTT0=
EXTT1=
EXTT2=
EXTT3=
EXTT4=
EXTT5=
EXTT6=
EXTT7=
EXTT8=
EXTT9=
EXTT10=
PLAYORDER=
